<?xml version="1.0" encoding="UTF-8" standalone="no"?>
<svg
   width="430"
   height="60"
   viewBox="0 0 430 60"
   version="1.1"
   id="svg6"
   sodipodi:docname="logo.svg"
   inkscape:version="1.2.1 (9c6d41e410, 2022-07-14)"
   xmlns:inkscape="http://www.inkscape.org/namespaces/inkscape"
   xmlns:sodipodi="http://sodipodi.sourceforge.net/DTD/sodipodi-0.dtd"
   xmlns="http://www.w3.org/2000/svg"
   xmlns:svg="http://www.w3.org/2000/svg">
  <defs
     id="defs10" />
  <sodipodi:namedview
     id="namedview8"
     pagecolor="#ffffff"
     bordercolor="#000000"
     borderopacity="0.25"
     inkscape:showpageshadow="2"
     inkscape:pageopacity="0.0"
     inkscape:pagecheckerboard="0"
     inkscape:deskcolor="#d1d1d1"
     showgrid="false"
     inkscape:zoom="2.7688787"
     inkscape:cx="218.68058"
     inkscape:cy="29.976033"
     inkscape:window-width="2560"
     inkscape:window-height="1369"
     inkscape:window-x="2552"
     inkscape:window-y="-8"
     inkscape:window-maximized="1"
     inkscape:current-layer="svg6" />
  <path
     fill="currentColor"
     fill-rule="evenodd"
     d="M 90.806019,3.2273471 H 103.69778 L 96.89176,46.208919 H 84 Z M 128.291,2 h 11.66485 l -6.99524,44.208919 h -23.54333 a 6.3360068,6.3382401 0 0 1 -6.35432,-7.553375 l 2.7102,-17.097372 c 0.65924,-4.115581 4.63298,-7.553374 8.741,-7.553374 h 11.86018 z m -13.4289,36.112092 h 7.6911 L 125.08638,22.0772 h -7.73383 z m 26.76626,-16.584451 c 0.65313,-4.115581 4.63298,-7.553374 8.74711,-7.553374 h 14.11867 a 6.3421108,6.3443463 0 0 1 6.36043,7.553374 l -0.66535,4.158325 c -0.64703,4.109476 -4.63297,7.547269 -8.7471,7.547269 h -10.00455 l -0.56157,3.645404 h 18.17787 l -5.17013,9.33028 h -18.61736 a 6.3299027,6.3321339 0 0 1 -6.34821,-7.553375 z m 11.48172,1.166285 -0.6104,4.048414 h 6.50082 l 0.64092,-4.048414 z m 19.36817,11.784975 c 0.65923,-4.115582 4.64518,-7.571694 8.7471,-7.571694 h 10.01675 l 0.56768,-3.620979 h -17.56136 l 5.16403,-9.33028 h 17.98864 a 6.3421108,6.3443463 0 0 1 6.36042,7.553375 l -3.90659,24.681278 h -21.68159 a 6.3360068,6.3382401 0 0 1 -6.35432,-7.553375 z m 17.09134,3.010358 0.61041,-4.048413 h -6.4764 l -0.64703,4.048413 z m 22.7376,8.71966 a 6.3360068,6.3382401 0 0 1 -6.34821,-7.553375 l 5.79884,-36.6372254 h 11.67095 l -5.35326,33.6940354 h 7.32487 l -5.32884,10.514884 z m 12.14096,0 5.35325,-10.563733 h 18.66009 l 1.01938,-6.380984 h -13.02605 c -4.35219,0 -6.99525,-3.132483 -6.29938,-7.492312 l 1.75186,-11.05223 a 8.7532116,8.756297 0 0 1 8.69827,-7.4923129 h 26.53432 l -5.35935,10.5637339 h -17.46369 l -1.01328,6.399302 h 13.01384 c 4.35829,0 6.99524,3.132482 6.31159,7.492312 l -1.75186,11.058336 a 8.7532116,8.756297 0 0 1 -8.67386,7.467888 z M 269.7036,13.974267 h 11.65263 l -3.6136,22.904372 h 7.72774 l 3.66243,-22.904372 h 11.66484 l -5.10298,32.234652 H 272.14522 A 6.3299027,6.3321339 0 0 1 265.797,38.655544 Z M 310.62516,58 h -11.67094 l 6.96472,-44.025733 h 23.52502 a 6.3421108,6.3443463 0 0 1 6.38484,7.553374 l -2.7102,17.127903 c -0.65314,4.121688 -4.63297,7.553375 -8.7471,7.553375 H 312.48691 Z M 321.5087,38.112092 324.04798,22.0772 h -7.75215 l -2.53318,16.034892 z M 346.47427,58 h -11.66485 l 6.97083,-44.025733 h 23.51281 a 6.3421108,6.3443463 0 0 1 6.36042,7.553374 l -2.7163,17.127903 c -0.64702,4.121688 -4.62687,7.553375 -8.741,7.553375 H 348.34211 Z M 357.35779,38.112092 359.89708,22.0772 h -7.73994 l -2.52708,16.034892 z m 22.60941,8.096827 a 6.3360068,6.3382401 0 0 1 -6.36042,-7.553375 l 5.81106,-36.6372254 h 11.66484 l -5.49364,34.8786394 h 5.28 l -5.17013,9.33028 z m 42.24615,4.243812 C 421.55411,54.568313 417.57427,58 413.45404,58 h -24.36738 l 4.80999,-8.71966 h 16.82888 l 0.6104,-3.663723 h -11.87238 a 6.3482149,6.3504525 0 0 1 -6.36042,-7.559481 l 3.80893,-24.070657 h 11.66484 l -3.52814,22.287646 h 7.73993 l 3.52815,-22.287646 H 428 Z"
     id="path2" />
  <path
     fill="currentColor"
     fill-rule="evenodd"
     d="m 22.795638,45.347215 a 20.792758,20.847215 0 1 1 0,-41.6944296 h 3.621727 V 15.713818 h -3.621727 a 8.757103,8.7800382 0 0 0 0,17.560076 h 3.621727 v 12.073321 z m 24.414485,0 a 20.792758,20.847215 0 0 0 0,-41.6944296 H 43.588395 V 15.713818 h 3.621728 a 8.757103,8.7800382 0 1 1 0,17.560076 H 43.588395 V 45.347215 Z M 29.401766,2 h 11.1961 v 15.280584 h -11.1961 z m 0,29.713272 h 11.1961 V 47 h -11.1961 z"
     id="path4" />
</svg>