<svg xmlns="http://www.w3.org/2000/svg" width="437" height="60"  viewBox="0 0 437 60">
  <path fill="currentColor" fill-rule="evenodd" d="M97.806019 3.2273471h12.891761l-6.80602 42.9815719H91ZM135.291 2h11.66485l-6.99524 44.208919h-23.54333a6.3360068 6.3382401 0 0 1-6.35432-7.553375l2.7102-17.097372c.65924-4.115581 4.63298-7.553374 8.741-7.553374h11.86018zm-13.4289 36.112092h7.6911l2.53318-16.034892h-7.73383zm26.76626-16.584451c.65313-4.115581 4.63298-7.553374 8.74711-7.553374h14.11867a6.3421108 6.3443463 0 0 1 6.36043 7.553374l-.66535 4.158325c-.64703 4.109476-4.63297 7.547269-8.7471 7.547269h-10.00455l-.56157 3.645404h18.17787l-5.17013 9.33028h-18.61736a6.3299027 6.3321339 0 0 1-6.34821-7.553375zm11.48172 1.166285-.6104 4.048414h6.50082l.64092-4.048414zm19.36817 11.784975c.65923-4.115582 4.64518-7.571694 8.7471-7.571694h10.01675l.56768-3.620979h-17.56136l5.16403-9.33028h17.98864a6.3421108 6.3443463 0 0 1 6.36042 7.553375l-3.90659 24.681278h-21.68159a6.3360068 6.3382401 0 0 1-6.35432-7.553375zm17.09134 3.010358.61041-4.048413h-6.4764l-.64703 4.048413zm22.7376 8.71966a6.3360068 6.3382401 0 0 1-6.34821-7.553375l5.79884-36.6372254h11.67095l-5.35326 33.6940354h7.32487l-5.32884 10.514884zm12.14096 0 5.35325-10.563733h18.66009l1.01938-6.380984h-13.02605c-4.35219 0-6.99525-3.132483-6.29938-7.492312l1.75186-11.05223a8.7532116 8.756297 0 0 1 8.69827-7.4923129h26.53432l-5.35935 10.5637339h-17.46369l-1.01328 6.399302h13.01384c4.35829 0 6.99524 3.132482 6.31159 7.492312l-1.75186 11.058336a8.7532116 8.756297 0 0 1-8.67386 7.467888zm45.25545-32.234652h11.65263l-3.6136 22.904372h7.72774l3.66243-22.904372h11.66484l-5.10298 32.234652h-23.54944a6.3299027 6.3321339 0 0 1-6.34822-7.553375ZM317.62516 58h-11.67094l6.96472-44.025733h23.52502a6.3421108 6.3443463 0 0 1 6.38484 7.553374l-2.7102 17.127903c-.65314 4.121688-4.63297 7.553375-8.7471 7.553375h-11.88459Zm10.88354-19.887908 2.53928-16.034892h-7.75215l-2.53318 16.034892zM353.47427 58h-11.66485l6.97083-44.025733h23.51281a6.3421108 6.3443463 0 0 1 6.36042 7.553374l-2.7163 17.127903c-.64702 4.121688-4.62687 7.553375-8.741 7.553375h-11.85407Zm10.88352-19.887908 2.53929-16.034892h-7.73994l-2.52708 16.034892zm22.60941 8.096827a6.3360068 6.3382401 0 0 1-6.36042-7.553375l5.81106-36.6372254h11.66484l-5.49364 34.8786394h5.28l-5.17013 9.33028zm42.24615 4.243812C428.55411 54.568313 424.57427 58 420.45404 58h-24.36738l4.80999-8.71966h16.82888l.6104-3.663723h-11.87238a6.3482149 6.3504525 0 0 1-6.36042-7.559481l3.80893-24.070657h11.66484l-3.52814 22.287646h7.73993l3.52815-22.287646H435Z"/>
  <path fill="currentColor" fill-rule="evenodd" d="M22.795638 45.347215a20.792758 20.847215 0 1 1 0-41.6944296h3.621727V15.713818h-3.621727a8.757103 8.7800382 0 0 0 0 17.560076h3.621727v12.073321zm24.414485 0a20.792758 20.847215 0 0 0 0-41.6944296h-3.621728V15.713818h3.621728a8.757103 8.7800382 0 1 1 0 17.560076h-3.621728v12.073321ZM29.401766 2h11.1961v15.280584h-11.1961zm0 29.713272h11.1961V47h-11.1961z"/>
</svg>