<svg width="430" height="60" xmlns="http://www.w3.org/2000/svg"><path fill="#fff" fill-rule="evenodd" d="M90.806 3.227h12.892L96.892 46.21H84ZM128.291 2h11.665l-6.995 44.209h-23.544a6.336 6.338 0 0 1-6.354-7.553l2.71-17.098c.66-4.115 4.633-7.553 8.741-7.553h11.86zm-13.429 36.112h7.691l2.533-16.035h-7.733zm26.766-16.584c.653-4.116 4.633-7.554 8.747-7.554h14.12a6.342 6.344 0 0 1 6.36 7.554l-.666 4.158c-.647 4.11-4.633 7.547-8.747 7.547h-10.004l-.562 3.646h18.178l-5.17 9.33h-18.618a6.33 6.332 0 0 1-6.348-7.553zm11.482 1.166-.61 4.048h6.5l.641-4.048zm19.368 11.785c.66-4.116 4.645-7.572 8.747-7.572h10.017l.568-3.62h-17.562l5.164-9.331h17.99a6.342 6.344 0 0 1 6.36 7.553l-3.907 24.682h-21.682a6.336 6.338 0 0 1-6.354-7.554zm17.092 3.01.61-4.048h-6.476l-.647 4.048zm22.737 8.72a6.336 6.338 0 0 1-6.348-7.553l5.799-36.638h11.67l-5.352 33.694h7.324l-5.328 10.515zm12.141 0 5.353-10.564h18.66l1.02-6.38h-13.026c-4.352 0-6.995-3.133-6.3-7.493l1.752-11.052a8.753 8.756 0 0 1 8.699-7.493h26.534l-5.36 10.564h-17.463l-1.013 6.4h13.013c4.359 0 6.996 3.132 6.312 7.492l-1.752 11.058a8.753 8.756 0 0 1-8.674 7.468zm45.256-32.235h11.652l-3.613 22.905h7.727l3.663-22.905h11.665l-5.103 32.235h-23.55a6.33 6.332 0 0 1-6.348-7.553ZM310.625 58h-11.67l6.964-44.026h23.525a6.342 6.344 0 0 1 6.385 7.554l-2.71 17.128c-.654 4.121-4.633 7.553-8.748 7.553h-11.884Zm10.884-19.888 2.539-16.035h-7.752l-2.533 16.035zM346.474 58H334.81l6.971-44.026h23.513a6.342 6.344 0 0 1 6.36 7.554l-2.716 17.128c-.647 4.121-4.627 7.553-8.74 7.553h-11.855Zm10.884-19.888 2.54-16.035h-7.74l-2.528 16.035zm22.61 8.097a6.336 6.338 0 0 1-6.361-7.553l5.81-36.638h11.666l-5.494 34.879h5.28l-5.17 9.33zm42.245 4.244c-.659 4.115-4.639 7.547-8.759 7.547h-24.367l4.81-8.72h16.829l.61-3.663h-11.872a6.348 6.35 0 0 1-6.36-7.56l3.808-24.07h11.665l-3.528 22.287h7.74l3.528-22.288H428ZM22.796 45.347a20.793 20.847 0 1 1 0-41.694h3.621v12.06h-3.621a8.757 8.78 0 0 0 0 17.56h3.621v12.074zm24.414 0a20.793 20.847 0 0 0 0-41.694h-3.622v12.06h3.622a8.757 8.78 0 1 1 0 17.56h-3.622v12.074ZM29.402 2h11.196v15.28H29.402zm0 29.713h11.196V47H29.402z"/></svg>